<svg width="66" height="77" viewBox="0 0 66 77" fill="none" xmlns="http://www.w3.org/2000/svg">
<path d="M37.358 4.47729C37.358 2.07046 35.4068 0.11934 33 0.11934C30.5932 0.11934 28.642 2.07046 28.642 4.47729H37.358ZM29.9185 75.61C31.6203 77.3119 34.3797 77.3119 36.0815 75.61L63.8154 47.8761C65.5173 46.1742 65.5173 43.4149 63.8154 41.713C62.1135 40.0112 59.3542 40.0112 57.6523 41.713L33 66.3654L8.34769 41.713C6.6458 40.0112 3.8865 40.0112 2.18461 41.713C0.482719 43.4149 0.482719 46.1742 2.18461 47.8761L29.9185 75.61ZM33 4.47729H28.642V72.5284H33H37.358V4.47729H33Z" fill="black"/>
</svg>
