<svg width="2287" height="1285" viewBox="0 0 2287 1285" fill="none" xmlns="http://www.w3.org/2000/svg">
<path d="M965.798 408.5H1233.33C1257.92 408.5 1275.86 431.778 1269.59 455.56L1058.94 1254.56C1054.6 1271.03 1039.71 1282.5 1022.68 1282.5H755.15C730.748 1282.5 712.9 1259.58 718.747 1236L718.89 1235.44L929.537 436.44C933.878 419.974 948.769 408.5 965.798 408.5Z" stroke="#0BFF9D" stroke-opacity="0.1" stroke-width="5"/>
<path d="M1967.56 2.5H2235.09C2259.68 2.5001 2277.62 25.7776 2271.35 49.5596L2060.7 848.56C2056.36 865.026 2041.47 876.5 2024.44 876.5H1756.91C1732.51 876.5 1714.66 853.584 1720.51 829.997L1720.65 829.44L1931.3 30.4404C1935.64 13.9743 1950.53 2.50011 1967.56 2.5Z" stroke="#0BFF9D" stroke-opacity="0.1" stroke-width="5"/>
<path d="M1262.32 2.5H1762.09C1786.49 2.5 1804.34 25.4156 1798.49 49.0029L1798.35 49.5596L1587.7 848.56C1583.36 865.026 1568.47 876.5 1551.44 876.5H1051.67L1051.1 876.496C1026.8 876.137 1009.19 853.037 1015.41 829.44L1226.06 30.4404C1230.4 13.9743 1245.29 2.50011 1262.32 2.5Z" stroke="#0BFF9D" stroke-opacity="0.1" stroke-width="5"/>
<path d="M262.56 408.5H762.326C786.729 408.5 804.577 431.416 798.729 455.003L798.587 455.56L587.939 1254.56C583.598 1271.03 568.708 1282.5 551.679 1282.5H51.9121L51.3369 1282.5C27.0387 1282.14 9.43054 1259.04 15.6514 1235.44L226.299 436.44C230.64 419.974 245.531 408.5 262.56 408.5Z" stroke="#0BFF9D" stroke-opacity="0.1" stroke-width="5"/>
</svg>
