<?xml version="1.0" encoding="UTF-8" standalone="no"?>
<!DOCTYPE svg PUBLIC "-//W3C//DTD SVG 1.1//EN" "http://www.w3.org/Graphics/SVG/1.1/DTD/svg11.dtd">
<svg width="100%" height="100%" viewBox="0 0 9530 5355" version="1.1" xmlns="http://www.w3.org/2000/svg" xmlns:xlink="http://www.w3.org/1999/xlink" xml:space="preserve" xmlns:serif="http://www.serif.com/" style="fill-rule:evenodd;clip-rule:evenodd;stroke-linejoin:round;stroke-miterlimit:2;">
    <rect id="Artboard1" x="0" y="0" width="9529.17" height="5354.17" style="fill:none;"/>
    <clipPath id="_clip1">
        <rect id="Artboard11" serif:id="Artboard1" x="0" y="0" width="9529.17" height="5354.17"/>
    </clipPath>
    <g clip-path="url(#_clip1)">
        <g transform="matrix(4.16667,0,0,4.16667,0,0)">
            <rect x="0" y="0" width="2287" height="1285" style="fill:white;"/>
        </g>
        <g transform="matrix(4.16667,0,0,4.16667,2930.16,1691.67)">
            <clipPath id="_clip2">
                <path d="M223.881,29.803C228.512,12.239 244.396,0 262.56,0L530.088,0C556.322,0 575.454,24.83 568.766,50.197L358.119,849.197C353.488,866.761 337.604,879 319.44,879L51.912,879C25.678,879 6.546,854.17 13.234,828.803L223.881,29.803Z"/>
            </clipPath>
            <g clip-path="url(#_clip2)">
                <path d="M568.766,50.197L573.601,51.472L568.766,50.197ZM223.881,29.803L219.047,28.528L223.881,29.803ZM262.56,-5L262.56,5L530.088,5L530.088,-5L262.56,-5ZM568.766,50.197L563.931,48.923L353.284,847.922L358.119,849.197L362.953,850.472L573.601,51.472L568.766,50.197ZM319.44,884L319.44,874L51.912,874L51.912,884L319.44,884ZM13.234,828.803L18.069,830.078L228.716,31.078L223.881,29.803L219.047,28.528L8.399,827.528L13.234,828.803ZM51.912,884L51.912,874C28.957,874 12.217,852.274 18.069,830.078L13.234,828.803L8.399,827.528C0.875,856.067 22.399,884 51.912,884ZM358.119,849.197L353.284,847.922C349.232,863.291 335.334,874 319.44,874L319.44,884C339.875,884 357.744,870.231 362.953,850.472L358.119,849.197ZM530.088,-5L530.088,5C553.043,5 569.783,26.726 563.931,48.923L568.766,50.197L573.601,51.472C581.125,22.933 559.601,-5 530.088,-5ZM262.56,5L262.56,-5C242.125,-5 224.256,8.769 219.047,28.528L223.881,29.803L228.716,31.078C232.768,15.709 246.666,5 262.56,5Z" style="fill:rgb(11,255,157);fill-rule:nonzero;"/>
            </g>
        </g>
        <g transform="matrix(4.16667,0,0,4.16667,7104.17,-0.000254167)">
            <clipPath id="_clip3">
                <path d="M223.881,29.803C228.512,12.239 244.396,0 262.56,0L530.088,0C556.322,0 575.454,24.83 568.766,50.197L358.119,849.197C353.488,866.761 337.604,879 319.44,879L51.912,879C25.678,879 6.546,854.17 13.234,828.803L223.881,29.803Z"/>
            </clipPath>
            <g clip-path="url(#_clip3)">
                <path d="M568.766,50.197L573.601,51.472L568.766,50.197ZM223.881,29.803L219.047,28.528L223.881,29.803ZM262.56,-5L262.56,5L530.088,5L530.088,-5L262.56,-5ZM568.766,50.197L563.931,48.923L353.284,847.922L358.119,849.197L362.953,850.472L573.601,51.472L568.766,50.197ZM319.44,884L319.44,874L51.912,874L51.912,884L319.44,884ZM13.234,828.803L18.069,830.078L228.716,31.078L223.881,29.803L219.047,28.528L8.399,827.528L13.234,828.803ZM51.912,884L51.912,874C28.957,874 12.217,852.274 18.069,830.078L13.234,828.803L8.399,827.528C0.875,856.067 22.399,884 51.912,884ZM358.119,849.197L353.284,847.922C349.232,863.291 335.334,874 319.44,874L319.44,884C339.875,884 357.744,870.231 362.953,850.472L358.119,849.197ZM530.088,-5L530.088,5C553.043,5 569.783,26.726 563.931,48.923L568.766,50.197L573.601,51.472C581.125,22.933 559.601,-5 530.088,-5ZM262.56,5L262.56,-5C242.125,-5 224.256,8.769 219.047,28.528L223.881,29.803L228.716,31.078C232.768,15.709 246.666,5 262.56,5Z" style="fill:rgb(11,255,157);fill-rule:nonzero;"/>
            </g>
        </g>
        <g transform="matrix(4.16667,0,0,4.16667,4165.67,0.000508333)">
            <clipPath id="_clip4">
                <path d="M223.881,29.803C228.512,12.239 244.396,-0 262.56,-0L762.326,-0C788.561,-0 807.693,24.829 801.005,50.197L590.357,849.197C585.727,866.761 569.843,879 551.679,879L51.912,879C25.678,879 6.546,854.17 13.234,828.803L223.881,29.803Z"/>
            </clipPath>
            <g clip-path="url(#_clip4)">
                <path d="M51.912,879L51.912,874L51.912,879ZM590.357,849.197L595.192,850.472L590.357,849.197ZM551.679,879L551.679,884L551.679,879ZM262.56,-5L262.56,5L762.326,5L762.326,-5L262.56,-5ZM801.005,50.197L796.17,48.922L585.522,847.922L590.357,849.197L595.192,850.472L805.839,51.472L801.005,50.197ZM551.679,884L551.679,874L51.912,874L51.912,879L51.912,884L551.679,884ZM13.234,828.803L18.069,830.078L228.716,31.077L223.881,29.803L219.047,28.528L8.399,827.528L13.234,828.803ZM51.912,879L51.912,874C28.957,874 12.217,852.274 18.069,830.078L13.234,828.803L8.399,827.528C0.875,856.067 22.399,884 51.912,884L51.912,879ZM590.357,849.197L585.522,847.922C581.471,863.291 567.572,874 551.679,874L551.679,884C572.113,884 589.983,870.231 595.192,850.472L590.357,849.197ZM762.326,-5L762.326,5C785.281,5 802.022,26.726 796.17,48.922L801.005,50.197L805.839,51.472C813.363,22.933 791.84,-5 762.326,-5ZM262.56,5L262.56,-5C242.125,-5 224.256,8.769 219.047,28.528L223.881,29.803L228.716,31.077C232.768,15.709 246.666,5 262.56,5Z" style="fill:rgb(11,255,157);fill-rule:nonzero;"/>
            </g>
        </g>
        <g transform="matrix(4.16667,0,0,4.16667,0,1691.67)">
            <clipPath id="_clip5">
                <path d="M223.881,29.803C228.512,12.239 244.396,-0 262.56,-0L762.326,-0C788.561,-0 807.693,24.829 801.005,50.197L590.357,849.197C585.727,866.761 569.843,879 551.679,879L51.912,879C25.678,879 6.546,854.171 13.234,828.803L223.881,29.803Z"/>
            </clipPath>
            <g clip-path="url(#_clip5)">
                <path d="M51.912,879L51.912,874L51.912,879ZM590.357,849.197L595.192,850.472L590.357,849.197ZM551.679,879L551.679,884L551.679,879ZM262.56,-5L262.56,5L762.326,5L762.326,-5L262.56,-5ZM801.005,50.197L796.17,48.922L585.522,847.922L590.357,849.197L595.192,850.472L805.839,51.472L801.005,50.197ZM551.679,884L551.679,874L51.912,874L51.912,879L51.912,884L551.679,884ZM13.234,828.803L18.069,830.078L228.716,31.077L223.881,29.803L219.047,28.528L8.399,827.528L13.234,828.803ZM51.912,879L51.912,874C28.957,874 12.217,852.274 18.069,830.078L13.234,828.803L8.399,827.528C0.875,856.067 22.399,884 51.912,884L51.912,879ZM590.357,849.197L585.522,847.922C581.471,863.291 567.572,874 551.679,874L551.679,884C572.113,884 589.983,870.231 595.192,850.472L590.357,849.197ZM762.326,-5L762.326,5C785.281,5 802.022,26.726 796.17,48.922L801.005,50.197L805.839,51.472C813.363,22.933 791.84,-5 762.326,-5ZM262.56,5L262.56,-5C242.125,-5 224.256,8.769 219.047,28.528L223.881,29.803L228.716,31.077C232.768,15.709 246.666,5 262.56,5Z" style="fill:rgb(11,255,157);fill-rule:nonzero;"/>
            </g>
        </g>
    </g>
</svg>
