<?xml version="1.0" encoding="UTF-8" standalone="no"?>
<!DOCTYPE svg PUBLIC "-//W3C//DTD SVG 1.1//EN" "http://www.w3.org/Graphics/SVG/1.1/DTD/svg11.dtd">
<svg width="100%" height="100%" viewBox="0 0 1458 984" version="1.1" xmlns="http://www.w3.org/2000/svg" xmlns:xlink="http://www.w3.org/1999/xlink" xml:space="preserve" xmlns:serif="http://www.serif.com/" style="fill-rule:evenodd;clip-rule:evenodd;stroke-linejoin:round;stroke-miterlimit:2;">
    <g id="Artboard1" transform="matrix(0.758958,0,0,0.91037,0,0)">
        <rect x="0" y="0" width="1920" height="1080" style="fill:none;"/>
        <clipPath id="_clip1">
            <rect x="0" y="0" width="1920" height="1080"/>
        </clipPath>
        <g clip-path="url(#_clip1)">
            <g transform="matrix(1.3176,0,0,1.09845,43.0145,29.6793)">
                <path d="M1394.26,62.545C1402.29,62.545 1409.99,65.735 1415.67,71.413C1421.35,77.091 1424.54,84.792 1424.54,92.822L1424.54,925.943C1424.54,933.973 1421.35,941.675 1415.67,947.353C1409.99,953.031 1402.29,956.221 1394.26,956.221L87.195,956.221C79.165,956.221 71.464,953.031 65.786,947.353C60.108,941.675 56.918,933.973 56.918,925.943L56.918,92.822C56.918,84.792 60.108,77.091 65.786,71.413C71.464,65.735 79.165,62.545 87.195,62.545L1394.26,62.545ZM1394.26,75.545L87.195,75.545C82.613,75.545 78.218,77.365 74.978,80.605C71.738,83.845 69.918,88.24 69.918,92.822L69.918,925.943C69.918,930.526 71.738,934.92 74.978,938.16C78.218,941.4 82.613,943.221 87.195,943.221L1394.26,943.221C1398.84,943.221 1403.24,941.4 1406.48,938.16C1409.72,934.92 1411.54,930.526 1411.54,925.943L1411.54,92.822C1411.54,88.24 1409.72,83.845 1406.48,80.605C1403.24,77.365 1398.84,75.545 1394.26,75.545Z" style="fill:white;"/>
            </g>
            <g transform="matrix(1.3176,0,0,1.09845,-74.9945,-68.7026)">
                <path d="M1394.26,62.545C1402.29,62.545 1409.99,65.735 1415.67,71.413C1421.35,77.091 1424.54,84.792 1424.54,92.822L1424.54,925.943C1424.54,933.973 1421.35,941.675 1415.67,947.353C1409.99,953.031 1402.29,956.221 1394.26,956.221C1212.59,956.221 268.868,956.221 87.195,956.221C79.165,956.221 71.464,953.031 65.786,947.353C60.108,941.675 56.918,933.973 56.918,925.943C56.918,789.156 56.918,229.61 56.918,92.822C56.918,84.792 60.108,77.091 65.786,71.413C71.464,65.735 79.165,62.545 87.195,62.545L1394.26,62.545Z" style="fill:rgb(5,18,47);"/>
                <path d="M1394.26,62.545C1402.29,62.545 1409.99,65.735 1415.67,71.413C1421.35,77.091 1424.54,84.792 1424.54,92.822L1424.54,925.943C1424.54,933.973 1421.35,941.675 1415.67,947.353C1409.99,953.031 1402.29,956.221 1394.26,956.221L87.195,956.221C79.165,956.221 71.464,953.031 65.786,947.353C60.108,941.675 56.918,933.973 56.918,925.943L56.918,92.822C56.918,84.792 60.108,77.091 65.786,71.413C71.464,65.735 79.165,62.545 87.195,62.545L1394.26,62.545ZM1394.26,75.545L87.195,75.545C82.613,75.545 78.218,77.365 74.978,80.605C71.738,83.845 69.918,88.24 69.918,92.822L69.918,925.943C69.918,930.526 71.738,934.92 74.978,938.16C78.218,941.4 82.613,943.221 87.195,943.221L1394.26,943.221C1398.84,943.221 1403.24,941.4 1406.48,938.16C1409.72,934.92 1411.54,930.526 1411.54,925.943L1411.54,92.822C1411.54,88.24 1409.72,83.845 1406.48,80.605C1403.24,77.365 1398.84,75.545 1394.26,75.545Z" style="fill:white;"/>
            </g>
            <g transform="matrix(0.343083,0,0,0.372713,98.4816,312.104)">
                <path d="M1308.26,62.545C1372.48,62.545 1424.54,102.496 1424.54,151.777C1424.54,322.99 1424.54,695.776 1424.54,866.988C1424.54,916.27 1372.48,956.221 1308.26,956.221C1050.06,956.221 431.394,956.221 173.196,956.221C108.977,956.221 56.918,916.27 56.918,866.988C56.918,695.776 56.918,322.99 56.918,151.777C56.918,102.496 108.977,62.545 173.196,62.545C431.394,62.545 1050.06,62.545 1308.26,62.545Z" style="fill:white;fill-opacity:0.25;"/>
            </g>
            <g transform="matrix(1.3176,0,0,1.09845,-74.9945,-68.7026)">
                <g transform="matrix(0.260385,0,0,0.257422,131.661,710.068)">
                    <path d="M1308.26,62.545C1339.1,62.545 1368.67,74.937 1390.48,96.994C1412.29,119.051 1424.54,148.968 1424.54,180.161C1424.54,422.77 1424.54,956.221 1424.54,956.221L56.918,956.221L56.918,180.161C56.918,148.968 69.168,119.051 90.975,96.994C112.781,74.937 142.357,62.545 173.196,62.545C431.394,62.545 1050.06,62.545 1308.26,62.545Z" style="fill:url(#_Linear2);"/>
                </g>
                <g transform="matrix(0.260385,0,0,0.257422,554.691,710.068)">
                    <path d="M1308.26,62.545C1339.1,62.545 1368.67,74.937 1390.48,96.994C1412.29,119.051 1424.54,148.968 1424.54,180.161C1424.54,422.77 1424.54,956.221 1424.54,956.221L56.918,956.221L56.918,180.161C56.918,148.968 69.168,119.051 90.975,96.994C112.781,74.937 142.357,62.545 173.196,62.545C431.394,62.545 1050.06,62.545 1308.26,62.545Z" style="fill:url(#_Linear3);"/>
                </g>
                <g transform="matrix(0.260385,0,0,0.257422,977.722,710.068)">
                    <path d="M1308.26,62.545C1339.1,62.545 1368.67,74.937 1390.48,96.994C1412.29,119.051 1424.54,148.968 1424.54,180.161C1424.54,422.77 1424.54,956.221 1424.54,956.221L56.918,956.221L56.918,180.161C56.918,148.968 69.168,119.051 90.975,96.994C112.781,74.937 142.357,62.545 173.196,62.545C431.394,62.545 1050.06,62.545 1308.26,62.545Z" style="fill:url(#_Linear4);"/>
                </g>
            </g>
            <g transform="matrix(0.343083,0,0,0.372713,655.864,312.104)">
                <path d="M1308.26,62.545C1372.48,62.545 1424.54,102.496 1424.54,151.777C1424.54,322.99 1424.54,695.776 1424.54,866.988C1424.54,916.27 1372.48,956.221 1308.26,956.221C1050.06,956.221 431.394,956.221 173.196,956.221C108.977,956.221 56.918,916.27 56.918,866.988C56.918,695.776 56.918,322.99 56.918,151.777C56.918,102.496 108.977,62.545 173.196,62.545C431.394,62.545 1050.06,62.545 1308.26,62.545Z" style="fill:white;fill-opacity:0.25;"/>
            </g>
            <g transform="matrix(0.343083,0,0,0.372713,1213.25,312.104)">
                <path d="M1308.26,62.545C1372.48,62.545 1424.54,102.496 1424.54,151.777C1424.54,322.99 1424.54,695.776 1424.54,866.988C1424.54,916.27 1372.48,956.221 1308.26,956.221C1050.06,956.221 431.394,956.221 173.196,956.221C108.977,956.221 56.918,916.27 56.918,866.988C56.918,695.776 56.918,322.99 56.918,151.777C56.918,102.496 108.977,62.545 173.196,62.545C431.394,62.545 1050.06,62.545 1308.26,62.545Z" style="fill:white;fill-opacity:0.25;"/>
            </g>
            <g transform="matrix(1.35057,0,0,1.12594,-89.4426,-70.8451)">
                <text x="154.18px" y="218.21px" style="font-family:'Sora-SemiBold', 'Sora';font-weight:600;font-size:54.386px;fill:white;fill-opacity:0.5;">Her<tspan x="253.923px " y="218.21px ">e</tspan> ar<tspan x="353.83px " y="218.21px ">e</tspan> six pla<tspan x="576.702px 606.615px " y="218.21px 218.21px ">ye</tspan>rs that mat<tspan x="938.911px " y="218.21px ">c</tspan>hes y<tspan x="1112.57px " y="218.21px ">o</tspan>ur</text>
                <g transform="matrix(54.3857,0,0,54.3857,526.015,287.042)">
                </g>
                <text x="154.18px" y="287.042px" style="font-family:'Sora-SemiBold', 'Sora';font-weight:600;font-size:54.386px;fill:white;fill-opacity:0.5;">pla<tspan x="240.381px 270.293px " y="287.042px 287.042px ">ye</tspan>r a<tspan x="370.037px 401.417px 433.396px 456.728px " y="287.042px 287.042px 287.042px 287.042px ">vata</tspan>r:</text>
            </g>
        </g>
    </g>
    <defs>
        <linearGradient id="_Linear2" x1="0" y1="0" x2="1" y2="0" gradientUnits="userSpaceOnUse" gradientTransform="matrix(5.01431e-14,828.325,-156.708,9.70605e-15,2365.36,62.5448)"><stop offset="0" style="stop-color:white;stop-opacity:0.25"/><stop offset="1" style="stop-color:white;stop-opacity:0"/></linearGradient>
        <linearGradient id="_Linear3" x1="0" y1="0" x2="1" y2="0" gradientUnits="userSpaceOnUse" gradientTransform="matrix(5.01431e-14,828.325,-156.708,9.70605e-15,740.728,62.5448)"><stop offset="0" style="stop-color:white;stop-opacity:0.25"/><stop offset="1" style="stop-color:white;stop-opacity:0"/></linearGradient>
        <linearGradient id="_Linear4" x1="0" y1="0" x2="1" y2="0" gradientUnits="userSpaceOnUse" gradientTransform="matrix(5.01431e-14,828.325,-156.708,9.70605e-15,-883.904,62.5448)"><stop offset="0" style="stop-color:white;stop-opacity:0.25"/><stop offset="1" style="stop-color:white;stop-opacity:0"/></linearGradient>
    </defs>
</svg>
