<?xml version="1.0" encoding="UTF-8" standalone="no"?>
<!DOCTYPE svg PUBLIC "-//W3C//DTD SVG 1.1//EN" "http://www.w3.org/Graphics/SVG/1.1/DTD/svg11.dtd">
<svg width="100%" height="100%" viewBox="0 0 1458 984" version="1.1" xmlns="http://www.w3.org/2000/svg" xmlns:xlink="http://www.w3.org/1999/xlink" xml:space="preserve" xmlns:serif="http://www.serif.com/" style="fill-rule:evenodd;clip-rule:evenodd;stroke-linejoin:round;stroke-miterlimit:2;">
    <g id="Artboard1" transform="matrix(0.758958,0,0,0.91037,0,0)">
        <rect x="0" y="0" width="1920" height="1080" style="fill:none;"/>
        <clipPath id="_clip1">
            <rect x="0" y="0" width="1920" height="1080"/>
        </clipPath>
        <g clip-path="url(#_clip1)">
            <g transform="matrix(1.3176,0,0,1.09845,43.0145,29.6793)">
                <path d="M1394.26,62.545C1402.29,62.545 1409.99,65.735 1415.67,71.413C1421.35,77.091 1424.54,84.792 1424.54,92.822L1424.54,925.943C1424.54,933.973 1421.35,941.675 1415.67,947.353C1409.99,953.031 1402.29,956.221 1394.26,956.221L87.195,956.221C79.165,956.221 71.464,953.031 65.786,947.353C60.108,941.675 56.918,933.973 56.918,925.943L56.918,92.822C56.918,84.792 60.108,77.091 65.786,71.413C71.464,65.735 79.165,62.545 87.195,62.545L1394.26,62.545ZM1394.26,75.545L87.195,75.545C82.613,75.545 78.218,77.365 74.978,80.605C71.738,83.845 69.918,88.24 69.918,92.822L69.918,925.943C69.918,930.526 71.738,934.92 74.978,938.16C78.218,941.4 82.613,943.221 87.195,943.221L1394.26,943.221C1398.84,943.221 1403.24,941.4 1406.48,938.16C1409.72,934.92 1411.54,930.526 1411.54,925.943L1411.54,92.822C1411.54,88.24 1409.72,83.845 1406.48,80.605C1403.24,77.365 1398.84,75.545 1394.26,75.545Z" style="fill:white;"/>
            </g>
            <g transform="matrix(1.3176,0,0,1.09845,-74.9945,-68.7026)">
                <path d="M1394.26,62.545C1402.29,62.545 1409.99,65.735 1415.67,71.413C1421.35,77.091 1424.54,84.792 1424.54,92.822L1424.54,925.943C1424.54,933.973 1421.35,941.675 1415.67,947.353C1409.99,953.031 1402.29,956.221 1394.26,956.221C1212.59,956.221 268.868,956.221 87.195,956.221C79.165,956.221 71.464,953.031 65.786,947.353C60.108,941.675 56.918,933.973 56.918,925.943C56.918,789.156 56.918,229.61 56.918,92.822C56.918,84.792 60.108,77.091 65.786,71.413C71.464,65.735 79.165,62.545 87.195,62.545L1394.26,62.545Z" style="fill:rgb(5,18,47);"/>
                <path d="M1394.26,62.545C1402.29,62.545 1409.99,65.735 1415.67,71.413C1421.35,77.091 1424.54,84.792 1424.54,92.822L1424.54,925.943C1424.54,933.973 1421.35,941.675 1415.67,947.353C1409.99,953.031 1402.29,956.221 1394.26,956.221L87.195,956.221C79.165,956.221 71.464,953.031 65.786,947.353C60.108,941.675 56.918,933.973 56.918,925.943L56.918,92.822C56.918,84.792 60.108,77.091 65.786,71.413C71.464,65.735 79.165,62.545 87.195,62.545L1394.26,62.545ZM1394.26,75.545L87.195,75.545C82.613,75.545 78.218,77.365 74.978,80.605C71.738,83.845 69.918,88.24 69.918,92.822L69.918,925.943C69.918,930.526 71.738,934.92 74.978,938.16C78.218,941.4 82.613,943.221 87.195,943.221L1394.26,943.221C1398.84,943.221 1403.24,941.4 1406.48,938.16C1409.72,934.92 1411.54,930.526 1411.54,925.943L1411.54,92.822C1411.54,88.24 1409.72,83.845 1406.48,80.605C1403.24,77.365 1398.84,75.545 1394.26,75.545Z" style="fill:white;"/>
            </g>
            <g transform="matrix(0.343083,0,0,0.372713,98.4816,312.104)">
                <path d="M1308.26,62.545C1372.48,62.545 1424.54,102.496 1424.54,151.777C1424.54,322.99 1424.54,695.776 1424.54,866.988C1424.54,916.27 1372.48,956.221 1308.26,956.221C1050.06,956.221 431.394,956.221 173.196,956.221C108.977,956.221 56.918,916.27 56.918,866.988C56.918,695.776 56.918,322.99 56.918,151.777C56.918,102.496 108.977,62.545 173.196,62.545C431.394,62.545 1050.06,62.545 1308.26,62.545Z" style="fill:white;fill-opacity:0.25;"/>
            </g>
            <g transform="matrix(1.3176,0,0,1.09845,-74.9945,-68.7026)">
                <g transform="matrix(0.260385,0,0,0.257422,131.661,710.068)">
                    <path d="M1308.26,62.545C1339.1,62.545 1368.67,74.937 1390.48,96.994C1412.29,119.051 1424.54,148.968 1424.54,180.161C1424.54,422.77 1424.54,956.221 1424.54,956.221L56.918,956.221L56.918,180.161C56.918,148.968 69.168,119.051 90.975,96.994C112.781,74.937 142.357,62.545 173.196,62.545C431.394,62.545 1050.06,62.545 1308.26,62.545Z" style="fill:url(#_Linear2);"/>
                </g>
                <g transform="matrix(0.260385,0,0,0.257422,554.691,710.068)">
                    <path d="M1308.26,62.545C1339.1,62.545 1368.67,74.937 1390.48,96.994C1412.29,119.051 1424.54,148.968 1424.54,180.161C1424.54,422.77 1424.54,956.221 1424.54,956.221L56.918,956.221L56.918,180.161C56.918,148.968 69.168,119.051 90.975,96.994C112.781,74.937 142.357,62.545 173.196,62.545C431.394,62.545 1050.06,62.545 1308.26,62.545Z" style="fill:url(#_Linear3);"/>
                </g>
                <g transform="matrix(0.260385,0,0,0.257422,977.722,710.068)">
                    <path d="M1308.26,62.545C1339.1,62.545 1368.67,74.937 1390.48,96.994C1412.29,119.051 1424.54,148.968 1424.54,180.161C1424.54,422.77 1424.54,956.221 1424.54,956.221L56.918,956.221L56.918,180.161C56.918,148.968 69.168,119.051 90.975,96.994C112.781,74.937 142.357,62.545 173.196,62.545C431.394,62.545 1050.06,62.545 1308.26,62.545Z" style="fill:url(#_Linear4);"/>
                </g>
            </g>
            <g transform="matrix(0.343083,0,0,0.372713,655.864,312.104)">
                <path d="M1308.26,62.545C1372.48,62.545 1424.54,102.496 1424.54,151.777C1424.54,322.99 1424.54,695.776 1424.54,866.988C1424.54,916.27 1372.48,956.221 1308.26,956.221C1050.06,956.221 431.394,956.221 173.196,956.221C108.977,956.221 56.918,916.27 56.918,866.988C56.918,695.776 56.918,322.99 56.918,151.777C56.918,102.496 108.977,62.545 173.196,62.545C431.394,62.545 1050.06,62.545 1308.26,62.545Z" style="fill:white;fill-opacity:0.25;"/>
            </g>
            <g transform="matrix(0.343083,0,0,0.372713,1213.25,312.104)">
                <path d="M1308.26,62.545C1372.48,62.545 1424.54,102.496 1424.54,151.777C1424.54,322.99 1424.54,695.776 1424.54,866.988C1424.54,916.27 1372.48,956.221 1308.26,956.221C1050.06,956.221 431.394,956.221 173.196,956.221C108.977,956.221 56.918,916.27 56.918,866.988C56.918,695.776 56.918,322.99 56.918,151.777C56.918,102.496 108.977,62.545 173.196,62.545C431.394,62.545 1050.06,62.545 1308.26,62.545Z" style="fill:white;fill-opacity:0.25;"/>
            </g>
            <g transform="matrix(1.35057,0,0,1.12594,-89.4426,-70.8451)">
                <path d="M185.125,218.21L185.125,178.509L192.848,178.509L192.848,218.21L185.125,218.21ZM159.074,218.21L159.074,178.509L166.797,178.509L166.797,218.21L159.074,218.21ZM165.383,201.731L165.383,194.933L186.539,194.933L186.539,201.731L165.383,201.731Z" style="fill:white;fill-opacity:0.5;fill-rule:nonzero;"/>
                <path d="M215.255,219.244C212.717,219.244 210.496,218.808 208.593,217.938C206.689,217.068 205.112,215.899 203.861,214.43C202.61,212.962 201.667,211.321 201.033,209.508C200.398,207.696 200.081,205.846 200.081,203.961L200.081,202.928C200.081,200.97 200.398,199.075 201.033,197.244C201.667,195.414 202.61,193.782 203.861,192.35C205.112,190.918 206.662,189.776 208.511,188.923C210.36,188.071 212.499,187.645 214.929,187.645C218.119,187.645 220.793,188.343 222.95,189.739C225.108,191.135 226.73,192.966 227.818,195.232C228.906,197.498 229.45,199.937 229.45,202.547L229.45,205.266L203.29,205.266L203.29,200.644L224.718,200.644L222.379,202.928C222.379,201.042 222.107,199.429 221.564,198.087C221.02,196.746 220.195,195.713 219.089,194.987C217.983,194.262 216.596,193.9 214.929,193.9C213.261,193.9 211.847,194.28 210.686,195.042C209.526,195.803 208.647,196.9 208.049,198.332C207.451,199.764 207.151,201.478 207.151,203.472C207.151,205.321 207.441,206.961 208.022,208.394C208.602,209.826 209.49,210.95 210.686,211.765C211.883,212.581 213.406,212.989 215.255,212.989C217.104,212.989 218.609,212.618 219.769,211.874C220.929,211.131 221.672,210.215 221.999,209.128L228.96,209.128C228.525,211.158 227.691,212.935 226.458,214.458C225.226,215.98 223.657,217.159 221.754,217.993C219.85,218.827 217.684,219.244 215.255,219.244Z" style="fill:white;fill-opacity:0.5;fill-rule:nonzero;"/>
                <path d="M235.758,218.21L235.758,188.679L241.741,188.679L241.741,201.187L241.578,201.187C241.578,196.945 242.484,193.737 244.297,191.561C246.11,189.386 248.775,188.298 252.292,188.298L253.379,188.298L253.379,194.879L251.313,194.879C248.775,194.879 246.808,195.559 245.412,196.918C244.016,198.278 243.318,200.245 243.318,202.819L243.318,218.21L235.758,218.21Z" style="fill:white;fill-opacity:0.5;fill-rule:nonzero;"/>
                <path d="M271.435,219.244C268.897,219.244 266.677,218.808 264.773,217.938C262.87,217.068 261.292,215.899 260.042,214.43C258.791,212.962 257.848,211.321 257.213,209.508C256.579,207.696 256.262,205.846 256.262,203.961L256.262,202.928C256.262,200.97 256.579,199.075 257.213,197.244C257.848,195.414 258.791,193.782 260.042,192.35C261.292,190.918 262.842,189.776 264.691,188.923C266.541,188.071 268.68,187.645 271.109,187.645C274.3,187.645 276.974,188.343 279.131,189.739C281.288,191.135 282.911,192.966 283.998,195.232C285.086,197.498 285.63,199.937 285.63,202.547L285.63,205.266L259.47,205.266L259.47,200.644L280.898,200.644L278.56,202.928C278.56,201.042 278.288,199.429 277.744,198.087C277.2,196.746 276.375,195.713 275.27,194.987C274.164,194.262 272.777,193.9 271.109,193.9C269.441,193.9 268.027,194.28 266.867,195.042C265.707,195.803 264.827,196.9 264.229,198.332C263.631,199.764 263.332,201.478 263.332,203.472C263.332,205.321 263.622,206.961 264.202,208.394C264.782,209.826 265.67,210.95 266.867,211.765C268.063,212.581 269.586,212.989 271.435,212.989C273.284,212.989 274.789,212.618 275.949,211.874C277.11,211.131 277.853,210.215 278.179,209.128L285.141,209.128C284.705,211.158 283.872,212.935 282.639,214.458C281.406,215.98 279.838,217.159 277.934,217.993C276.031,218.827 273.865,219.244 271.435,219.244Z" style="fill:white;fill-opacity:0.5;fill-rule:nonzero;"/>
                <path d="M321.579,218.21L321.579,209.454L320.328,209.454L320.328,199.719C320.328,198.015 319.911,196.746 319.077,195.912C318.243,195.078 316.956,194.661 315.216,194.661C314.309,194.661 313.222,194.679 311.953,194.716C310.684,194.752 309.406,194.797 308.118,194.852C306.831,194.906 305.68,194.969 304.665,195.042L304.665,188.624C305.499,188.552 306.442,188.479 307.493,188.407C308.545,188.334 309.623,188.289 310.729,188.271C311.835,188.253 312.877,188.244 313.856,188.244C316.902,188.244 319.431,188.642 321.443,189.44C323.455,190.238 324.978,191.489 326.011,193.193C327.045,194.897 327.561,197.127 327.561,199.882L327.561,218.21L321.579,218.21ZM312.061,218.972C309.922,218.972 308.046,218.591 306.433,217.829C304.819,217.068 303.568,215.98 302.68,214.566C301.792,213.152 301.347,211.448 301.347,209.454C301.347,207.279 301.882,205.502 302.952,204.124C304.021,202.747 305.526,201.713 307.466,201.024C309.406,200.335 311.681,199.991 314.291,199.991L321.144,199.991L321.144,204.505L314.183,204.505C312.442,204.505 311.11,204.931 310.185,205.783C309.261,206.635 308.798,207.732 308.798,209.073C308.798,210.415 309.261,211.503 310.185,212.337C311.11,213.17 312.442,213.587 314.183,213.587C315.234,213.587 316.204,213.397 317.092,213.016C317.98,212.636 318.724,211.983 319.322,211.058C319.92,210.134 320.256,208.874 320.328,207.279L322.177,209.4C321.996,211.466 321.497,213.207 320.682,214.621C319.866,216.035 318.742,217.113 317.31,217.857C315.878,218.6 314.128,218.972 312.061,218.972Z" style="fill:white;fill-opacity:0.5;fill-rule:nonzero;"/>
                <path d="M335.665,218.21L335.665,188.679L341.647,188.679L341.647,201.187L341.484,201.187C341.484,196.945 342.391,193.737 344.203,191.561C346.016,189.386 348.681,188.298 352.198,188.298L353.286,188.298L353.286,194.879L351.219,194.879C348.681,194.879 346.714,195.559 345.318,196.918C343.922,198.278 343.224,200.245 343.224,202.819L343.224,218.21L335.665,218.21Z" style="fill:white;fill-opacity:0.5;fill-rule:nonzero;"/>
                <path d="M371.342,219.244C368.804,219.244 366.583,218.808 364.68,217.938C362.776,217.068 361.199,215.899 359.948,214.43C358.697,212.962 357.755,211.321 357.12,209.508C356.486,207.696 356.168,205.846 356.168,203.961L356.168,202.928C356.168,200.97 356.486,199.075 357.12,197.244C357.755,195.414 358.697,193.782 359.948,192.35C361.199,190.918 362.749,189.776 364.598,188.923C366.447,188.071 368.586,187.645 371.016,187.645C374.206,187.645 376.88,188.343 379.037,189.739C381.195,191.135 382.817,192.966 383.905,195.232C384.993,197.498 385.537,199.937 385.537,202.547L385.537,205.266L359.377,205.266L359.377,200.644L380.805,200.644L378.466,202.928C378.466,201.042 378.195,199.429 377.651,198.087C377.107,196.746 376.282,195.713 375.176,194.987C374.07,194.262 372.683,193.9 371.016,193.9C369.348,193.9 367.934,194.28 366.774,195.042C365.613,195.803 364.734,196.9 364.136,198.332C363.538,199.764 363.238,201.478 363.238,203.472C363.238,205.321 363.528,206.961 364.109,208.394C364.689,209.826 365.577,210.95 366.774,211.765C367.97,212.581 369.493,212.989 371.342,212.989C373.191,212.989 374.696,212.618 375.856,211.874C377.016,211.131 377.759,210.215 378.086,209.128L385.047,209.128C384.612,211.158 383.778,212.935 382.545,214.458C381.313,215.98 379.745,217.159 377.841,217.993C375.938,218.827 373.771,219.244 371.342,219.244Z" style="fill:white;fill-opacity:0.5;fill-rule:nonzero;"/>
                <path d="M414.307,219.135C410.246,219.135 407.064,218.274 404.762,216.551C402.46,214.829 401.254,212.445 401.145,209.4L407.944,209.4C408.052,210.415 408.614,211.339 409.629,212.173C410.645,213.007 412.24,213.424 414.415,213.424C416.228,213.424 417.669,213.098 418.739,212.445C419.809,211.793 420.343,210.904 420.343,209.78C420.343,208.801 419.936,208.022 419.12,207.442C418.304,206.862 416.917,206.481 414.959,206.3L412.349,206.028C409.049,205.665 406.511,204.723 404.735,203.2C402.958,201.677 402.07,199.647 402.07,197.109C402.07,195.078 402.577,193.374 403.593,191.996C404.608,190.618 406.013,189.576 407.808,188.869C409.602,188.162 411.66,187.809 413.98,187.809C417.606,187.809 420.543,188.606 422.791,190.202C425.039,191.797 426.217,194.135 426.326,197.217L419.528,197.217C419.455,196.202 418.948,195.332 418.005,194.607C417.062,193.882 415.703,193.519 413.926,193.519C412.331,193.519 411.098,193.827 410.228,194.444C409.358,195.06 408.922,195.858 408.922,196.837C408.922,197.779 409.276,198.504 409.983,199.012C410.69,199.52 411.841,199.864 413.436,200.045L416.047,200.317C419.528,200.68 422.256,201.641 424.232,203.2C426.208,204.759 427.196,206.862 427.196,209.508C427.196,211.466 426.661,213.161 425.592,214.594C424.522,216.026 423.026,217.141 421.105,217.938C419.183,218.736 416.917,219.135 414.307,219.135Z" style="fill:white;fill-opacity:0.5;fill-rule:nonzero;"/>
                <path d="M434.864,218.21L434.864,188.679L442.424,188.679L442.424,218.21L434.864,218.21ZM430.731,194.335L430.731,188.679L442.424,188.679L442.424,194.335L430.731,194.335ZM437.638,185.144C436.152,185.144 435.055,184.754 434.348,183.974C433.641,183.195 433.287,182.207 433.287,181.01C433.287,179.814 433.641,178.835 434.348,178.074C435.055,177.312 436.152,176.931 437.638,176.931C439.125,176.931 440.212,177.312 440.901,178.074C441.59,178.835 441.935,179.814 441.935,181.01C441.935,182.207 441.59,183.195 440.901,183.974C440.212,184.754 439.125,185.144 437.638,185.144Z" style="fill:white;fill-opacity:0.5;fill-rule:nonzero;"/>
                <path d="M447.754,218.21L457.38,202.438L457.217,203.689L448.135,188.679L456.347,188.679L462.275,199.066L463.091,199.066L468.692,188.679L476.415,188.679L467.822,203.635L467.985,202.547L478.155,218.21L469.943,218.21L462.927,207.061L462.112,207.061L455.477,218.21L447.754,218.21Z" style="fill:white;fill-opacity:0.5;fill-rule:nonzero;"/>
                <path d="M494.798,229.087L494.798,188.679L500.78,188.679L500.78,201.405L499.855,201.351C500,198.341 500.626,195.821 501.732,193.791C502.838,191.761 504.315,190.247 506.164,189.25C508.013,188.253 510.08,187.754 512.364,187.754C514.467,187.754 516.361,188.135 518.047,188.896C519.733,189.658 521.184,190.727 522.398,192.105C523.613,193.483 524.547,195.087 525.199,196.918C525.852,198.749 526.178,200.716 526.178,202.819L526.178,203.961C526.178,206.1 525.861,208.085 525.226,209.916C524.592,211.747 523.667,213.361 522.453,214.757C521.238,216.153 519.779,217.24 518.075,218.02C516.371,218.799 514.467,219.189 512.364,219.189C510.152,219.189 508.131,218.727 506.3,217.802C504.469,216.878 502.992,215.446 501.868,213.506C500.744,211.566 500.109,209.055 499.964,205.973L502.357,209.617L502.357,229.087L494.798,229.087ZM510.461,212.826C512.092,212.826 513.515,212.427 514.73,211.63C515.944,210.832 516.896,209.717 517.585,208.285C518.274,206.853 518.618,205.23 518.618,203.417C518.618,201.532 518.274,199.9 517.585,198.523C516.896,197.145 515.944,196.066 514.73,195.287C513.515,194.507 512.092,194.117 510.461,194.117C508.974,194.117 507.605,194.444 506.354,195.096C505.104,195.749 504.088,196.71 503.309,197.979C502.529,199.248 502.14,200.77 502.14,202.547L502.14,204.723C502.14,206.427 502.538,207.877 503.336,209.073C504.134,210.27 505.167,211.194 506.436,211.847C507.705,212.5 509.047,212.826 510.461,212.826Z" style="fill:white;fill-opacity:0.5;fill-rule:nonzero;"/>
                <path d="M533.194,218.21L533.194,178.509L540.753,178.509L540.753,218.21L533.194,218.21ZM529.496,184.165L529.496,178.509L540.753,178.509L540.753,184.165L529.496,184.165Z" style="fill:white;fill-opacity:0.5;fill-rule:nonzero;"/>
                <path d="M567.294,218.21L567.294,209.454L566.043,209.454L566.043,199.719C566.043,198.015 565.626,196.746 564.792,195.912C563.958,195.078 562.671,194.661 560.931,194.661C560.024,194.661 558.936,194.679 557.667,194.716C556.398,194.752 555.12,194.797 553.833,194.852C552.546,194.906 551.395,194.969 550.38,195.042L550.38,188.624C551.214,188.552 552.156,188.479 553.208,188.407C554.259,188.334 555.338,188.289 556.444,188.271C557.55,188.253 558.592,188.244 559.571,188.244C562.617,188.244 565.145,188.642 567.158,189.44C569.17,190.238 570.693,191.489 571.726,193.193C572.759,194.897 573.276,197.127 573.276,199.882L573.276,218.21L567.294,218.21ZM557.776,218.972C555.637,218.972 553.761,218.591 552.147,217.829C550.534,217.068 549.283,215.98 548.395,214.566C547.506,213.152 547.062,211.448 547.062,209.454C547.062,207.279 547.597,205.502 548.667,204.124C549.736,202.747 551.241,201.713 553.181,201.024C555.12,200.335 557.395,199.991 560.006,199.991L566.859,199.991L566.859,204.505L559.897,204.505C558.157,204.505 556.824,204.931 555.9,205.783C554.975,206.635 554.513,207.732 554.513,209.073C554.513,210.415 554.975,211.503 555.9,212.337C556.824,213.17 558.157,213.587 559.897,213.587C560.949,213.587 561.919,213.397 562.807,213.016C563.695,212.636 564.438,211.983 565.037,211.058C565.635,210.134 565.97,208.874 566.043,207.279L567.892,209.4C567.711,211.466 567.212,213.207 566.396,214.621C565.581,216.035 564.457,217.113 563.024,217.857C561.592,218.6 559.843,218.972 557.776,218.972Z" style="fill:white;fill-opacity:0.5;fill-rule:nonzero;"/>
                <path d="M580.129,229.849L580.129,223.377L585.676,223.377C586.728,223.377 587.607,223.241 588.314,222.969C589.021,222.697 589.61,222.262 590.081,221.664C590.553,221.065 590.915,220.241 591.169,219.189L599.109,188.679L606.343,188.679L597.587,220.821C597.006,223.032 596.191,224.8 595.139,226.123C594.088,227.447 592.737,228.398 591.087,228.979C589.438,229.559 587.398,229.849 584.969,229.849L580.129,229.849ZM589.32,217.558L589.32,211.575L595.629,211.575L595.629,217.558L589.32,217.558ZM586.764,217.558L577.192,188.679L584.806,188.679L593.888,217.558L586.764,217.558Z" style="fill:white;fill-opacity:0.5;fill-rule:nonzero;"/>
                <path d="M624.127,219.244C621.589,219.244 619.368,218.808 617.465,217.938C615.561,217.068 613.984,215.899 612.733,214.43C611.482,212.962 610.539,211.321 609.905,209.508C609.27,207.696 608.953,205.846 608.953,203.961L608.953,202.928C608.953,200.97 609.27,199.075 609.905,197.244C610.539,195.414 611.482,193.782 612.733,192.35C613.984,190.918 615.534,189.776 617.383,188.923C619.232,188.071 621.371,187.645 623.8,187.645C626.991,187.645 629.665,188.343 631.822,189.739C633.98,191.135 635.602,192.966 636.69,195.232C637.778,197.498 638.321,199.937 638.321,202.547L638.321,205.266L612.162,205.266L612.162,200.644L633.59,200.644L631.251,202.928C631.251,201.042 630.979,199.429 630.436,198.087C629.892,196.746 629.067,195.713 627.961,194.987C626.855,194.262 625.468,193.9 623.8,193.9C622.133,193.9 620.719,194.28 619.558,195.042C618.398,195.803 617.519,196.9 616.921,198.332C616.322,199.764 616.023,201.478 616.023,203.472C616.023,205.321 616.313,206.961 616.893,208.394C617.474,209.826 618.362,210.95 619.558,211.765C620.755,212.581 622.278,212.989 624.127,212.989C625.976,212.989 627.481,212.618 628.641,211.874C629.801,211.131 630.544,210.215 630.871,209.128L637.832,209.128C637.397,211.158 636.563,212.935 635.33,214.458C634.097,215.98 632.529,217.159 630.626,217.993C628.722,218.827 626.556,219.244 624.127,219.244Z" style="fill:white;fill-opacity:0.5;fill-rule:nonzero;"/>
                <path d="M644.63,218.21L644.63,188.679L650.613,188.679L650.613,201.187L650.449,201.187C650.449,196.945 651.356,193.737 653.169,191.561C654.982,189.386 657.647,188.298 661.163,188.298L662.251,188.298L662.251,194.879L660.185,194.879C657.647,194.879 655.68,195.559 654.284,196.918C652.888,198.278 652.19,200.245 652.19,202.819L652.19,218.21L644.63,218.21Z" style="fill:white;fill-opacity:0.5;fill-rule:nonzero;"/>
                <path d="M678.023,219.135C673.962,219.135 670.781,218.274 668.478,216.551C666.176,214.829 664.97,212.445 664.862,209.4L671.66,209.4C671.769,210.415 672.331,211.339 673.346,212.173C674.361,213.007 675.956,213.424 678.132,213.424C679.945,213.424 681.386,213.098 682.455,212.445C683.525,211.793 684.06,210.904 684.06,209.78C684.06,208.801 683.652,208.022 682.836,207.442C682.02,206.862 680.634,206.481 678.676,206.3L676.065,206.028C672.766,205.665 670.228,204.723 668.451,203.2C666.675,201.677 665.786,199.647 665.786,197.109C665.786,195.078 666.294,193.374 667.309,191.996C668.324,190.618 669.729,189.576 671.524,188.869C673.319,188.162 675.376,187.809 677.697,187.809C681.322,187.809 684.259,188.606 686.507,190.202C688.755,191.797 689.934,194.135 690.042,197.217L683.244,197.217C683.172,196.202 682.664,195.332 681.721,194.607C680.779,193.882 679.419,193.519 677.642,193.519C676.047,193.519 674.814,193.827 673.944,194.444C673.074,195.06 672.639,195.858 672.639,196.837C672.639,197.779 672.992,198.504 673.699,199.012C674.406,199.52 675.558,199.864 677.153,200.045L679.763,200.317C683.244,200.68 685.972,201.641 687.948,203.2C689.924,204.759 690.912,206.862 690.912,209.508C690.912,211.466 690.378,213.161 689.308,214.594C688.238,216.026 686.743,217.141 684.821,217.938C682.9,218.736 680.634,219.135 678.023,219.135Z" style="fill:white;fill-opacity:0.5;fill-rule:nonzero;"/>
                <path d="M721.749,218.591C719.03,218.591 716.791,218.237 715.033,217.53C713.274,216.823 711.96,215.627 711.09,213.941C710.219,212.255 709.784,209.98 709.784,207.115L709.839,180.358L716.909,180.358L716.854,207.605C716.854,209.055 717.244,210.17 718.024,210.95C718.803,211.729 719.918,212.119 721.368,212.119L725.991,212.119L725.991,218.591L721.749,218.591ZM705.107,194.226L705.107,188.679L725.991,188.679L725.991,194.226L705.107,194.226Z" style="fill:white;fill-opacity:0.5;fill-rule:nonzero;"/>
                <path d="M732.354,218.21L732.354,178.509L739.914,178.509L739.914,201.677L738.609,201.677C738.609,198.704 738.989,196.184 739.751,194.117C740.512,192.051 741.645,190.473 743.15,189.386C744.655,188.298 746.567,187.754 748.888,187.754L749.214,187.754C752.586,187.754 755.142,188.914 756.882,191.235C758.623,193.555 759.493,196.927 759.493,201.351L759.493,218.21L751.933,218.21L751.933,200.644C751.933,198.758 751.398,197.272 750.329,196.184C749.259,195.096 747.854,194.552 746.114,194.552C744.265,194.552 742.769,195.16 741.627,196.374C740.485,197.589 739.914,199.175 739.914,201.133L739.914,218.21L732.354,218.21Z" style="fill:white;fill-opacity:0.5;fill-rule:nonzero;"/>
                <path d="M785.489,218.21L785.489,209.454L784.238,209.454L784.238,199.719C784.238,198.015 783.821,196.746 782.987,195.912C782.154,195.078 780.866,194.661 779.126,194.661C778.22,194.661 777.132,194.679 775.863,194.716C774.594,194.752 773.316,194.797 772.029,194.852C770.742,194.906 769.59,194.969 768.575,195.042L768.575,188.624C769.409,188.552 770.352,188.479 771.403,188.407C772.455,188.334 773.533,188.289 774.639,188.271C775.745,188.253 776.788,188.244 777.766,188.244C780.812,188.244 783.341,188.642 785.353,189.44C787.366,190.238 788.888,191.489 789.922,193.193C790.955,194.897 791.472,197.127 791.472,199.882L791.472,218.21L785.489,218.21ZM775.972,218.972C773.833,218.972 771.956,218.591 770.343,217.829C768.729,217.068 767.479,215.98 766.59,214.566C765.702,213.152 765.258,211.448 765.258,209.454C765.258,207.279 765.793,205.502 766.862,204.124C767.932,202.747 769.436,201.713 771.376,201.024C773.316,200.335 775.591,199.991 778.202,199.991L785.054,199.991L785.054,204.505L778.093,204.505C776.352,204.505 775.02,204.931 774.095,205.783C773.171,206.635 772.709,207.732 772.709,209.073C772.709,210.415 773.171,211.503 774.095,212.337C775.02,213.17 776.352,213.587 778.093,213.587C779.144,213.587 780.114,213.397 781.002,213.016C781.891,212.636 782.634,211.983 783.232,211.058C783.83,210.134 784.166,208.874 784.238,207.279L786.087,209.4C785.906,211.466 785.408,213.207 784.592,214.621C783.776,216.035 782.652,217.113 781.22,217.857C779.788,218.6 778.038,218.972 775.972,218.972Z" style="fill:white;fill-opacity:0.5;fill-rule:nonzero;"/>
                <path d="M812.41,218.591C809.691,218.591 807.452,218.237 805.694,217.53C803.935,216.823 802.621,215.627 801.751,213.941C800.88,212.255 800.445,209.98 800.445,207.115L800.5,180.358L807.57,180.358L807.515,207.605C807.515,209.055 807.905,210.17 808.685,210.95C809.464,211.729 810.579,212.119 812.029,212.119L816.652,212.119L816.652,218.591L812.41,218.591ZM795.768,194.226L795.768,188.679L816.652,188.679L816.652,194.226L795.768,194.226Z" style="fill:white;fill-opacity:0.5;fill-rule:nonzero;"/>
                <path d="M834.763,218.21L834.763,188.679L840.745,188.679L840.745,201.351L840.201,201.351C840.201,198.378 840.582,195.885 841.343,193.873C842.105,191.86 843.238,190.338 844.742,189.304C846.247,188.271 848.123,187.754 850.371,187.754L850.698,187.754C852.982,187.754 854.876,188.271 856.381,189.304C857.886,190.338 859.01,191.86 859.753,193.873C860.496,195.885 860.868,198.378 860.868,201.351L858.964,201.351C858.964,198.378 859.354,195.885 860.134,193.873C860.913,191.86 862.055,190.338 863.56,189.304C865.065,188.271 866.941,187.754 869.189,187.754L869.515,187.754C871.799,187.754 873.703,188.271 875.226,189.304C876.748,190.338 877.9,191.86 878.679,193.873C879.459,195.885 879.848,198.378 879.848,201.351L879.848,218.21L872.289,218.21L872.289,200.644C872.289,198.794 871.818,197.317 870.875,196.211C869.932,195.105 868.591,194.552 866.85,194.552C865.11,194.552 863.714,195.123 862.663,196.266C861.611,197.408 861.085,198.94 861.085,200.861L861.085,218.21L853.526,218.21L853.526,200.644C853.526,198.794 853.054,197.317 852.112,196.211C851.169,195.105 849.828,194.552 848.087,194.552C846.347,194.552 844.951,195.123 843.9,196.266C842.848,197.408 842.322,198.94 842.322,200.861L842.322,218.21L834.763,218.21Z" style="fill:white;fill-opacity:0.5;fill-rule:nonzero;"/>
                <path d="M905.845,218.21L905.845,209.454L904.594,209.454L904.594,199.719C904.594,198.015 904.177,196.746 903.343,195.912C902.509,195.078 901.222,194.661 899.482,194.661C898.575,194.661 897.488,194.679 896.219,194.716C894.95,194.752 893.672,194.797 892.384,194.852C891.097,194.906 889.946,194.969 888.931,195.042L888.931,188.624C889.765,188.552 890.708,188.479 891.759,188.407C892.81,188.334 893.889,188.289 894.995,188.271C896.101,188.253 897.143,188.244 898.122,188.244C901.168,188.244 903.697,188.642 905.709,189.44C907.721,190.238 909.244,191.489 910.277,193.193C911.311,194.897 911.827,197.127 911.827,199.882L911.827,218.21L905.845,218.21ZM896.327,218.972C894.188,218.972 892.312,218.591 890.698,217.829C889.085,217.068 887.834,215.98 886.946,214.566C886.058,213.152 885.613,211.448 885.613,209.454C885.613,207.279 886.148,205.502 887.218,204.124C888.287,202.747 889.792,201.713 891.732,201.024C893.672,200.335 895.947,199.991 898.557,199.991L905.41,199.991L905.41,204.505L898.448,204.505C896.708,204.505 895.376,204.931 894.451,205.783C893.526,206.635 893.064,207.732 893.064,209.073C893.064,210.415 893.526,211.503 894.451,212.337C895.376,213.17 896.708,213.587 898.448,213.587C899.5,213.587 900.47,213.397 901.358,213.016C902.246,212.636 902.99,211.983 903.588,211.058C904.186,210.134 904.521,208.874 904.594,207.279L906.443,209.4C906.262,211.466 905.763,213.207 904.947,214.621C904.132,216.035 903.008,217.113 901.576,217.857C900.143,218.6 898.394,218.972 896.327,218.972Z" style="fill:white;fill-opacity:0.5;fill-rule:nonzero;"/>
                <path d="M932.766,218.591C930.047,218.591 927.808,218.237 926.049,217.53C924.291,216.823 922.976,215.627 922.106,213.941C921.236,212.255 920.801,209.98 920.801,207.115L920.855,180.358L927.925,180.358L927.871,207.605C927.871,209.055 928.261,210.17 929.04,210.95C929.82,211.729 930.935,212.119 932.385,212.119L937.008,212.119L937.008,218.591L932.766,218.591ZM916.124,194.226L916.124,188.679L937.008,188.679L937.008,194.226L916.124,194.226Z" style="fill:white;fill-opacity:0.5;fill-rule:nonzero;"/>
                <path d="M956.315,219.244C953.741,219.244 951.52,218.808 949.653,217.938C947.785,217.068 946.226,215.908 944.975,214.458C943.725,213.007 942.791,211.376 942.175,209.563C941.558,207.75 941.25,205.901 941.25,204.016L941.25,202.982C941.25,200.988 941.567,199.075 942.202,197.244C942.836,195.414 943.788,193.782 945.057,192.35C946.326,190.918 947.894,189.776 949.761,188.923C951.629,188.071 953.795,187.645 956.26,187.645C958.835,187.645 961.137,188.144 963.167,189.141C965.198,190.138 966.82,191.525 968.035,193.302C969.25,195.078 969.929,197.145 970.074,199.501L962.732,199.501C962.551,197.979 961.907,196.71 960.802,195.694C959.696,194.679 958.182,194.172 956.26,194.172C954.593,194.172 953.206,194.571 952.1,195.368C950.994,196.166 950.169,197.263 949.625,198.659C949.082,200.054 948.81,201.659 948.81,203.472C948.81,205.212 949.072,206.789 949.598,208.203C950.124,209.617 950.94,210.723 952.046,211.521C953.151,212.318 954.574,212.717 956.315,212.717C957.62,212.717 958.744,212.482 959.687,212.01C960.629,211.539 961.382,210.886 961.944,210.052C962.506,209.218 962.859,208.276 963.004,207.224L970.346,207.224C970.201,209.617 969.503,211.711 968.252,213.506C967.002,215.301 965.352,216.706 963.303,217.721C961.255,218.736 958.925,219.244 956.315,219.244Z" style="fill:white;fill-opacity:0.5;fill-rule:nonzero;"/>
                <path d="M976.383,218.21L976.383,178.509L983.943,178.509L983.943,201.677L982.638,201.677C982.638,198.704 983.018,196.184 983.78,194.117C984.541,192.051 985.674,190.473 987.179,189.386C988.683,188.298 990.596,187.754 992.916,187.754L993.243,187.754C996.615,187.754 999.171,188.914 1000.91,191.235C1002.65,193.555 1003.52,196.927 1003.52,201.351L1003.52,218.21L995.962,218.21L995.962,200.644C995.962,198.758 995.427,197.272 994.358,196.184C993.288,195.096 991.883,194.552 990.143,194.552C988.294,194.552 986.798,195.16 985.656,196.374C984.514,197.589 983.943,199.175 983.943,201.133L983.943,218.21L976.383,218.21Z" style="fill:white;fill-opacity:0.5;fill-rule:nonzero;"/>
                <path d="M1024.84,219.244C1022.3,219.244 1020.08,218.808 1018.18,217.938C1016.27,217.068 1014.7,215.899 1013.45,214.43C1012.2,212.962 1011.25,211.321 1010.62,209.508C1009.98,207.696 1009.67,205.846 1009.67,203.961L1009.67,202.928C1009.67,200.97 1009.98,199.075 1010.62,197.244C1011.25,195.414 1012.2,193.782 1013.45,192.35C1014.7,190.918 1016.25,189.776 1018.1,188.923C1019.95,188.071 1022.09,187.645 1024.52,187.645C1027.7,187.645 1030.38,188.343 1032.54,189.739C1034.69,191.135 1036.32,192.966 1037.4,195.232C1038.49,197.498 1039.04,199.937 1039.04,202.547L1039.04,205.266L1012.88,205.266L1012.88,200.644L1034.3,200.644L1031.96,202.928C1031.96,201.042 1031.69,199.429 1031.15,198.087C1030.61,196.746 1029.78,195.713 1028.67,194.987C1027.57,194.262 1026.18,193.9 1024.52,193.9C1022.85,193.9 1021.43,194.28 1020.27,195.042C1019.11,195.803 1018.23,196.9 1017.63,198.332C1017.04,199.764 1016.74,201.478 1016.74,203.472C1016.74,205.321 1017.03,206.961 1017.61,208.394C1018.19,209.826 1019.08,210.95 1020.27,211.765C1021.47,212.581 1022.99,212.989 1024.84,212.989C1026.69,212.989 1028.19,212.618 1029.36,211.874C1030.52,211.131 1031.26,210.215 1031.59,209.128L1038.55,209.128C1038.11,211.158 1037.28,212.935 1036.04,214.458C1034.81,215.98 1033.24,217.159 1031.34,217.993C1029.44,218.827 1027.27,219.244 1024.84,219.244Z" style="fill:white;fill-opacity:0.5;fill-rule:nonzero;"/>
                <path d="M1056.06,219.135C1052,219.135 1048.82,218.274 1046.51,216.551C1044.21,214.829 1043.01,212.445 1042.9,209.4L1049.69,209.4C1049.8,210.415 1050.37,211.339 1051.38,212.173C1052.4,213.007 1053.99,213.424 1056.17,213.424C1057.98,213.424 1059.42,213.098 1060.49,212.445C1061.56,211.793 1062.1,210.904 1062.1,209.78C1062.1,208.801 1061.69,208.022 1060.87,207.442C1060.06,206.862 1058.67,206.481 1056.71,206.3L1054.1,206.028C1050.8,205.665 1048.26,204.723 1046.49,203.2C1044.71,201.677 1043.82,199.647 1043.82,197.109C1043.82,195.078 1044.33,193.374 1045.34,191.996C1046.36,190.618 1047.76,189.576 1049.56,188.869C1051.35,188.162 1053.41,187.809 1055.73,187.809C1059.36,187.809 1062.29,188.606 1064.54,190.202C1066.79,191.797 1067.97,194.135 1068.08,197.217L1061.28,197.217C1061.21,196.202 1060.7,195.332 1059.76,194.607C1058.81,193.882 1057.45,193.519 1055.68,193.519C1054.08,193.519 1052.85,193.827 1051.98,194.444C1051.11,195.06 1050.67,195.858 1050.67,196.837C1050.67,197.779 1051.03,198.504 1051.74,199.012C1052.44,199.52 1053.59,199.864 1055.19,200.045L1057.8,200.317C1061.28,200.68 1064.01,201.641 1065.98,203.2C1067.96,204.759 1068.95,206.862 1068.95,209.508C1068.95,211.466 1068.41,213.161 1067.34,214.594C1066.27,216.026 1064.78,217.141 1062.86,217.938C1060.93,218.736 1058.67,219.135 1056.06,219.135Z" style="fill:white;fill-opacity:0.5;fill-rule:nonzero;"/>
                <path d="M1086.08,229.849L1086.08,223.377L1091.63,223.377C1092.68,223.377 1093.56,223.241 1094.26,222.969C1094.97,222.697 1095.56,222.262 1096.03,221.664C1096.5,221.065 1096.87,220.241 1097.12,219.189L1105.06,188.679L1112.29,188.679L1103.54,220.821C1102.96,223.032 1102.14,224.8 1101.09,226.123C1100.04,227.447 1098.69,228.398 1097.04,228.979C1095.39,229.559 1093.35,229.849 1090.92,229.849L1086.08,229.849ZM1095.27,217.558L1095.27,211.575L1101.58,211.575L1101.58,217.558L1095.27,217.558ZM1092.71,217.558L1083.14,188.679L1090.76,188.679L1099.84,217.558L1092.71,217.558Z" style="fill:white;fill-opacity:0.5;fill-rule:nonzero;"/>
                <path d="M1131.06,219.244C1128.45,219.244 1126.14,218.827 1124.15,217.993C1122.15,217.159 1120.47,216.026 1119.09,214.594C1117.71,213.161 1116.67,211.539 1115.96,209.726C1115.26,207.913 1114.9,206.028 1114.9,204.07L1114.9,202.928C1114.9,200.897 1115.28,198.967 1116.02,197.136C1116.76,195.305 1117.83,193.673 1119.23,192.241C1120.62,190.809 1122.32,189.685 1124.31,188.869C1126.31,188.053 1128.55,187.645 1131.06,187.645C1133.56,187.645 1135.81,188.053 1137.8,188.869C1139.79,189.685 1141.49,190.809 1142.88,192.241C1144.28,193.673 1145.34,195.305 1146.07,197.136C1146.79,198.967 1147.15,200.897 1147.15,202.928L1147.15,204.07C1147.15,206.028 1146.8,207.913 1146.09,209.726C1145.39,211.539 1144.34,213.161 1142.97,214.594C1141.59,216.026 1139.9,217.159 1137.91,217.993C1135.91,218.827 1133.63,219.244 1131.06,219.244ZM1131.06,212.772C1132.9,212.772 1134.46,212.364 1135.73,211.548C1137,210.732 1137.96,209.626 1138.62,208.23C1139.27,206.835 1139.6,205.248 1139.6,203.472C1139.6,201.659 1139.26,200.054 1138.59,198.659C1137.92,197.263 1136.94,196.157 1135.65,195.341C1134.37,194.525 1132.83,194.117 1131.06,194.117C1129.28,194.117 1127.75,194.525 1126.46,195.341C1125.17,196.157 1124.18,197.263 1123.5,198.659C1122.81,200.054 1122.46,201.659 1122.46,203.472C1122.46,205.248 1122.8,206.835 1123.47,208.23C1124.14,209.626 1125.11,210.732 1126.38,211.548C1127.65,212.364 1129.21,212.772 1131.06,212.772Z" style="fill:white;fill-opacity:0.5;fill-rule:nonzero;"/>
                <path d="M1163.85,219.135C1160.44,219.135 1157.81,218.011 1155.94,215.763C1154.07,213.515 1153.14,210.179 1153.14,205.756L1153.14,188.624L1160.7,188.624L1160.7,206.408C1160.7,208.221 1161.2,209.663 1162.22,210.732C1163.23,211.802 1164.61,212.337 1166.35,212.337C1168.09,212.337 1169.52,211.775 1170.62,210.651C1171.73,209.527 1172.28,208.004 1172.28,206.082L1172.28,188.624L1179.84,188.624L1179.84,218.21L1173.86,218.21L1173.86,205.647L1174.46,205.647C1174.46,208.62 1174.08,211.104 1173.31,213.098C1172.55,215.092 1171.41,216.597 1169.89,217.612C1168.37,218.627 1166.46,219.135 1164.18,219.135L1163.85,219.135Z" style="fill:white;fill-opacity:0.5;fill-rule:nonzero;"/>
                <path d="M1188.54,218.21L1188.54,188.679L1194.52,188.679L1194.52,201.187L1194.36,201.187C1194.36,196.945 1195.27,193.737 1197.08,191.561C1198.89,189.386 1201.56,188.298 1205.08,188.298L1206.16,188.298L1206.16,194.879L1204.1,194.879C1201.56,194.879 1199.59,195.559 1198.19,196.918C1196.8,198.278 1196.1,200.245 1196.1,202.819L1196.1,218.21L1188.54,218.21Z" style="fill:white;fill-opacity:0.5;fill-rule:nonzero;"/>
                <path d="M158.476,297.919L158.476,257.511L164.459,257.511L164.459,270.237L163.534,270.183C163.679,267.173 164.304,264.653 165.41,262.623C166.516,260.593 167.994,259.079 169.843,258.082C171.692,257.085 173.759,256.586 176.043,256.586C178.146,256.586 180.04,256.967 181.726,257.728C183.412,258.49 184.862,259.559 186.077,260.937C187.292,262.315 188.225,263.919 188.878,265.75C189.53,267.581 189.857,269.548 189.857,271.651L189.857,272.793C189.857,274.932 189.539,276.917 188.905,278.748C188.27,280.579 187.346,282.193 186.131,283.589C184.917,284.985 183.457,286.072 181.753,286.852C180.049,287.631 178.146,288.021 176.043,288.021C173.831,288.021 171.81,287.559 169.979,286.634C168.148,285.71 166.67,284.278 165.546,282.338C164.422,280.398 163.788,277.887 163.643,274.805L166.036,278.449L166.036,297.919L158.476,297.919ZM174.139,281.658C175.771,281.658 177.194,281.259 178.409,280.461C179.623,279.664 180.575,278.549 181.264,277.117C181.953,275.685 182.297,274.062 182.297,272.249C182.297,270.364 181.953,268.732 181.264,267.354C180.575,265.977 179.623,264.898 178.409,264.119C177.194,263.339 175.771,262.949 174.139,262.949C172.653,262.949 171.284,263.276 170.033,263.928C168.782,264.581 167.767,265.542 166.988,266.811C166.208,268.08 165.818,269.602 165.818,271.379L165.818,273.554C165.818,275.259 166.217,276.709 167.015,277.905C167.812,279.102 168.846,280.026 170.115,280.679C171.384,281.332 172.725,281.658 174.139,281.658Z" style="fill:white;fill-opacity:0.5;fill-rule:nonzero;"/>
                <path d="M196.872,287.042L196.872,247.341L204.432,247.341L204.432,287.042L196.872,287.042ZM193.174,252.997L193.174,247.341L204.432,247.341L204.432,252.997L193.174,252.997Z" style="fill:white;fill-opacity:0.5;fill-rule:nonzero;"/>
                <path d="M230.972,287.042L230.972,278.286L229.721,278.286L229.721,268.551C229.721,266.847 229.305,265.578 228.471,264.744C227.637,263.91 226.35,263.493 224.609,263.493C223.703,263.493 222.615,263.511 221.346,263.547C220.077,263.584 218.799,263.629 217.512,263.683C216.225,263.738 215.074,263.801 214.058,263.874L214.058,257.456C214.892,257.384 215.835,257.311 216.886,257.239C217.938,257.166 219.017,257.121 220.122,257.103C221.228,257.085 222.271,257.076 223.25,257.076C226.295,257.076 228.824,257.474 230.836,258.272C232.849,259.07 234.371,260.321 235.405,262.025C236.438,263.729 236.955,265.959 236.955,268.714L236.955,287.042L230.972,287.042ZM221.455,287.804C219.316,287.804 217.439,287.423 215.826,286.661C214.212,285.9 212.962,284.812 212.073,283.398C211.185,281.984 210.741,280.28 210.741,278.286C210.741,276.111 211.276,274.334 212.345,272.956C213.415,271.578 214.919,270.545 216.859,269.856C218.799,269.167 221.074,268.823 223.685,268.823L230.537,268.823L230.537,273.337L223.576,273.337C221.836,273.337 220.503,273.763 219.579,274.615C218.654,275.467 218.192,276.564 218.192,277.905C218.192,279.247 218.654,280.335 219.579,281.168C220.503,282.002 221.836,282.419 223.576,282.419C224.627,282.419 225.597,282.229 226.486,281.848C227.374,281.468 228.117,280.815 228.715,279.89C229.314,278.966 229.649,277.706 229.721,276.111L231.571,278.232C231.389,280.298 230.891,282.039 230.075,283.453C229.259,284.867 228.135,285.945 226.703,286.689C225.271,287.432 223.521,287.804 221.455,287.804Z" style="fill:white;fill-opacity:0.5;fill-rule:nonzero;"/>
                <path d="M243.807,298.681L243.807,292.209L249.355,292.209C250.406,292.209 251.285,292.073 251.992,291.801C252.699,291.529 253.289,291.094 253.76,290.496C254.231,289.897 254.594,289.073 254.848,288.021L262.788,257.511L270.021,257.511L261.265,289.653C260.685,291.864 259.869,293.632 258.818,294.955C257.766,296.279 256.416,297.23 254.766,297.811C253.116,298.391 251.077,298.681 248.648,298.681L243.807,298.681ZM252.999,286.389L252.999,280.407L259.307,280.407L259.307,286.389L252.999,286.389ZM250.442,286.389L240.871,257.511L248.485,257.511L257.567,286.389L250.442,286.389Z" style="fill:white;fill-opacity:0.5;fill-rule:nonzero;"/>
                <path d="M287.805,288.075C285.267,288.075 283.047,287.64 281.143,286.77C279.24,285.9 277.662,284.731 276.412,283.262C275.161,281.794 274.218,280.153 273.584,278.34C272.949,276.528 272.632,274.678 272.632,272.793L272.632,271.76C272.632,269.802 272.949,267.907 273.584,266.076C274.218,264.245 275.161,262.614 276.412,261.182C277.662,259.75 279.212,258.607 281.062,257.755C282.911,256.903 285.05,256.477 287.479,256.477C290.67,256.477 293.344,257.175 295.501,258.571C297.658,259.967 299.281,261.798 300.369,264.064C301.456,266.33 302,268.769 302,271.379L302,274.098L275.841,274.098L275.841,269.476L297.269,269.476L294.93,271.76C294.93,269.874 294.658,268.261 294.114,266.919C293.57,265.578 292.745,264.545 291.64,263.819C290.534,263.094 289.147,262.732 287.479,262.732C285.811,262.732 284.397,263.112 283.237,263.874C282.077,264.635 281.198,265.732 280.599,267.164C280.001,268.596 279.702,270.309 279.702,272.304C279.702,274.153 279.992,275.793 280.572,277.226C281.152,278.658 282.041,279.782 283.237,280.597C284.434,281.413 285.956,281.821 287.805,281.821C289.655,281.821 291.159,281.449 292.319,280.706C293.48,279.963 294.223,279.047 294.549,277.96L301.511,277.96C301.076,279.99 300.242,281.767 299.009,283.29C297.776,284.812 296.208,285.991 294.305,286.825C292.401,287.659 290.235,288.075 287.805,288.075Z" style="fill:white;fill-opacity:0.5;fill-rule:nonzero;"/>
                <path d="M308.309,287.042L308.309,257.511L314.291,257.511L314.291,270.019L314.128,270.019C314.128,265.777 315.035,262.569 316.847,260.393C318.66,258.218 321.325,257.13 324.842,257.13L325.93,257.13L325.93,263.711L323.863,263.711C321.325,263.711 319.358,264.39 317.962,265.75C316.566,267.11 315.868,269.077 315.868,271.651L315.868,287.042L308.309,287.042Z" style="fill:white;fill-opacity:0.5;fill-rule:nonzero;"/>
                <path d="M360.628,287.042L360.628,278.286L359.377,278.286L359.377,268.551C359.377,266.847 358.96,265.578 358.126,264.744C357.292,263.91 356.005,263.493 354.265,263.493C353.358,263.493 352.271,263.511 351.002,263.547C349.733,263.584 348.455,263.629 347.167,263.683C345.88,263.738 344.729,263.801 343.714,263.874L343.714,257.456C344.548,257.384 345.491,257.311 346.542,257.239C347.593,257.166 348.672,257.121 349.778,257.103C350.884,257.085 351.926,257.076 352.905,257.076C355.951,257.076 358.48,257.474 360.492,258.272C362.504,259.07 364.027,260.321 365.06,262.025C366.094,263.729 366.61,265.959 366.61,268.714L366.61,287.042L360.628,287.042ZM351.11,287.804C348.971,287.804 347.095,287.423 345.481,286.661C343.868,285.9 342.617,284.812 341.729,283.398C340.841,281.984 340.396,280.28 340.396,278.286C340.396,276.111 340.931,274.334 342.001,272.956C343.07,271.578 344.575,270.545 346.515,269.856C348.455,269.167 350.73,268.823 353.34,268.823L360.193,268.823L360.193,273.337L353.231,273.337C351.491,273.337 350.159,273.763 349.234,274.615C348.31,275.467 347.847,276.564 347.847,277.905C347.847,279.247 348.31,280.335 349.234,281.168C350.159,282.002 351.491,282.419 353.231,282.419C354.283,282.419 355.253,282.229 356.141,281.848C357.029,281.468 357.773,280.815 358.371,279.89C358.969,278.966 359.305,277.706 359.377,276.111L361.226,278.232C361.045,280.298 360.546,282.039 359.731,283.453C358.915,284.867 357.791,285.945 356.359,286.689C354.926,287.432 353.177,287.804 351.11,287.804Z" style="fill:white;fill-opacity:0.5;fill-rule:nonzero;"/>
                <path d="M380.261,287.042L371.016,257.511L378.793,257.511L387.658,287.042L380.261,287.042ZM382.491,287.042L382.491,280.842L390.486,280.842L390.486,287.042L382.491,287.042ZM385.482,287.042L393.096,257.511L400.384,257.511L392.389,287.042L385.482,287.042Z" style="fill:white;fill-opacity:0.5;fill-rule:nonzero;"/>
                <path d="M423.607,287.042L423.607,278.286L422.356,278.286L422.356,268.551C422.356,266.847 421.939,265.578 421.105,264.744C420.271,263.91 418.984,263.493 417.243,263.493C416.337,263.493 415.249,263.511 413.98,263.547C412.711,263.584 411.433,263.629 410.146,263.683C408.859,263.738 407.708,263.801 406.693,263.874L406.693,257.456C407.527,257.384 408.469,257.311 409.521,257.239C410.572,257.166 411.651,257.121 412.757,257.103C413.862,257.085 414.905,257.076 415.884,257.076C418.929,257.076 421.458,257.474 423.471,258.272C425.483,259.07 427.006,260.321 428.039,262.025C429.072,263.729 429.589,265.959 429.589,268.714L429.589,287.042L423.607,287.042ZM414.089,287.804C411.95,287.804 410.074,287.423 408.46,286.661C406.847,285.9 405.596,284.812 404.708,283.398C403.819,281.984 403.375,280.28 403.375,278.286C403.375,276.111 403.91,274.334 404.979,272.956C406.049,271.578 407.554,270.545 409.493,269.856C411.433,269.167 413.708,268.823 416.319,268.823L423.172,268.823L423.172,273.337L416.21,273.337C414.47,273.337 413.137,273.763 412.213,274.615C411.288,275.467 410.826,276.564 410.826,277.905C410.826,279.247 411.288,280.335 412.213,281.168C413.137,282.002 414.47,282.419 416.21,282.419C417.262,282.419 418.231,282.229 419.12,281.848C420.008,281.468 420.751,280.815 421.35,279.89C421.948,278.966 422.283,277.706 422.356,276.111L424.205,278.232C424.024,280.298 423.525,282.039 422.709,283.453C421.893,284.867 420.769,285.945 419.337,286.689C417.905,287.432 416.156,287.804 414.089,287.804Z" style="fill:white;fill-opacity:0.5;fill-rule:nonzero;"/>
                <path d="M450.528,287.423C447.808,287.423 445.569,287.069 443.811,286.362C442.052,285.655 440.738,284.459 439.868,282.773C438.998,281.087 438.563,278.812 438.563,275.947L438.617,249.19L445.687,249.19L445.633,276.437C445.633,277.887 446.023,279.002 446.802,279.782C447.582,280.561 448.697,280.951 450.147,280.951L454.77,280.951L454.77,287.423L450.528,287.423ZM433.885,263.058L433.885,257.511L454.77,257.511L454.77,263.058L433.885,263.058Z" style="fill:white;fill-opacity:0.5;fill-rule:nonzero;"/>
                <path d="M478.917,287.042L478.917,278.286L477.666,278.286L477.666,268.551C477.666,266.847 477.249,265.578 476.415,264.744C475.581,263.91 474.294,263.493 472.554,263.493C471.647,263.493 470.56,263.511 469.291,263.547C468.022,263.584 466.744,263.629 465.456,263.683C464.169,263.738 463.018,263.801 462.003,263.874L462.003,257.456C462.837,257.384 463.78,257.311 464.831,257.239C465.882,257.166 466.961,257.121 468.067,257.103C469.173,257.085 470.215,257.076 471.194,257.076C474.24,257.076 476.769,257.474 478.781,258.272C480.793,259.07 482.316,260.321 483.349,262.025C484.383,263.729 484.899,265.959 484.899,268.714L484.899,287.042L478.917,287.042ZM469.399,287.804C467.26,287.804 465.384,287.423 463.77,286.661C462.157,285.9 460.906,284.812 460.018,283.398C459.13,281.984 458.685,280.28 458.685,278.286C458.685,276.111 459.22,274.334 460.29,272.956C461.359,271.578 462.864,270.545 464.804,269.856C466.744,269.167 469.019,268.823 471.629,268.823L478.482,268.823L478.482,273.337L471.52,273.337C469.78,273.337 468.448,273.763 467.523,274.615C466.599,275.467 466.136,276.564 466.136,277.905C466.136,279.247 466.599,280.335 467.523,281.168C468.448,282.002 469.78,282.419 471.52,282.419C472.572,282.419 473.542,282.229 474.43,281.848C475.318,281.468 476.062,280.815 476.66,279.89C477.258,278.966 477.593,277.706 477.666,276.111L479.515,278.232C479.334,280.298 478.835,282.039 478.02,283.453C477.204,284.867 476.08,285.945 474.648,286.689C473.215,287.432 471.466,287.804 469.399,287.804Z" style="fill:white;fill-opacity:0.5;fill-rule:nonzero;"/>
                <path d="M493.003,287.042L493.003,257.511L498.985,257.511L498.985,270.019L498.822,270.019C498.822,265.777 499.728,262.569 501.541,260.393C503.354,258.218 506.019,257.13 509.536,257.13L510.624,257.13L510.624,263.711L508.557,263.711C506.019,263.711 504.052,264.39 502.656,265.75C501.26,267.11 500.562,269.077 500.562,271.651L500.562,287.042L493.003,287.042Z" style="fill:white;fill-opacity:0.5;fill-rule:nonzero;"/>
                <path d="M514.485,287.042L514.485,278.34L522.969,278.34L522.969,287.042L514.485,287.042ZM514.485,268.279L514.485,259.577L522.969,259.577L522.969,268.279L514.485,268.279Z" style="fill:white;fill-opacity:0.5;fill-rule:nonzero;"/>
            </g>
        </g>
    </g>
    <defs>
        <linearGradient id="_Linear2" x1="0" y1="0" x2="1" y2="0" gradientUnits="userSpaceOnUse" gradientTransform="matrix(5.01431e-14,828.325,-156.708,9.70605e-15,2365.36,62.5448)"><stop offset="0" style="stop-color:white;stop-opacity:0.25"/><stop offset="1" style="stop-color:white;stop-opacity:0"/></linearGradient>
        <linearGradient id="_Linear3" x1="0" y1="0" x2="1" y2="0" gradientUnits="userSpaceOnUse" gradientTransform="matrix(5.01431e-14,828.325,-156.708,9.70605e-15,740.728,62.5448)"><stop offset="0" style="stop-color:white;stop-opacity:0.25"/><stop offset="1" style="stop-color:white;stop-opacity:0"/></linearGradient>
        <linearGradient id="_Linear4" x1="0" y1="0" x2="1" y2="0" gradientUnits="userSpaceOnUse" gradientTransform="matrix(5.01431e-14,828.325,-156.708,9.70605e-15,-883.904,62.5448)"><stop offset="0" style="stop-color:white;stop-opacity:0.25"/><stop offset="1" style="stop-color:white;stop-opacity:0"/></linearGradient>
    </defs>
</svg>
