<svg width="76" height="76" viewBox="0 0 76 76" fill="none" xmlns="http://www.w3.org/2000/svg">
<path d="M34.3318 43.975V36.145H38.5168C40.1068 36.145 41.2918 35.725 42.0718 34.885C42.8518 34.015 43.2418 32.965 43.2418 31.735C43.2418 30.865 43.0618 30.115 42.7018 29.485C42.3718 28.825 41.8768 28.315 41.2168 27.955C40.5868 27.565 39.8218 27.37 38.9218 27.37C37.9618 27.37 37.1518 27.58 36.4918 28C35.8318 28.39 35.3218 28.915 34.9618 29.575C34.6018 30.235 34.4218 30.985 34.4218 31.825H27.5368C27.5368 29.845 27.9718 28.06 28.8418 26.47C29.7418 24.85 31.0618 23.56 32.8018 22.6C34.5418 21.64 36.6418 21.16 39.1018 21.16C41.3818 21.16 43.3468 21.595 44.9968 22.465C46.6468 23.305 47.9218 24.475 48.8218 25.975C49.7218 27.475 50.1718 29.2 50.1718 31.15V31.69C50.1718 33.61 49.7068 35.305 48.7768 36.775C47.8768 38.215 46.5568 39.355 44.8168 40.195C43.0768 41.005 40.9618 41.44 38.4718 41.5L41.5768 39.025L41.4868 43.975H34.3318ZM33.7918 55V47.755H41.9818V55H33.7918Z" fill="white"/>
<circle cx="38" cy="38" r="36" stroke="white" stroke-width="4"/>
</svg>
